<svg width="38" height="30" viewBox="0 0 38 30" fill="none" xmlns="http://www.w3.org/2000/svg">
<path d="M34.25 0H4.25C2.1875 0 0.51875 1.6875 0.51875 3.75L0.5 26.25C0.5 28.3125 2.1875 30 4.25 30H34.25C36.3125 30 38 28.3125 38 26.25V3.75C38 1.6875 36.3125 0 34.25 0ZM33.5 7.96875L20.2437 16.2562C19.6437 16.6312 18.8563 16.6312 18.2563 16.2562L5 7.96875C4.81199 7.86321 4.64735 7.72062 4.51604 7.5496C4.38473 7.37859 4.28949 7.18271 4.23608 6.97382C4.18267 6.76493 4.17219 6.54738 4.20529 6.33433C4.23839 6.12127 4.31438 5.91715 4.42865 5.73431C4.54293 5.55148 4.69311 5.39373 4.87011 5.27062C5.04712 5.1475 5.24726 5.06158 5.45843 5.01806C5.6696 4.97454 5.88741 4.97431 6.09867 5.0174C6.30992 5.06049 6.51024 5.146 6.6875 5.26875L19.25 13.125L31.8125 5.26875C31.9898 5.146 32.1901 5.06049 32.4013 5.0174C32.6126 4.97431 32.8304 4.97454 33.0416 5.01806C33.2527 5.06158 33.4529 5.1475 33.6299 5.27062C33.8069 5.39373 33.9571 5.55148 34.0713 5.73431C34.1856 5.91715 34.2616 6.12127 34.2947 6.33433C34.3278 6.54738 34.3173 6.76493 34.2639 6.97382C34.2105 7.18271 34.1153 7.37859 33.984 7.5496C33.8527 7.72062 33.688 7.86321 33.5 7.96875Z" fill="white"/>
<path d="M33.5 7.96875L20.2437 16.2562C19.6437 16.6312 18.8563 16.6312 18.2563 16.2562L5 7.96875C4.81199 7.86321 4.64735 7.72062 4.51604 7.5496C4.38473 7.37859 4.28949 7.18271 4.23608 6.97382C4.18267 6.76493 4.17219 6.54738 4.20529 6.33433C4.23839 6.12127 4.31438 5.91715 4.42865 5.73431C4.54293 5.55148 4.69311 5.39373 4.87011 5.27062C5.04711 5.1475 5.24726 5.06158 5.45843 5.01806C5.6696 4.97454 5.88741 4.97431 6.09867 5.0174C6.30992 5.06049 6.51024 5.146 6.6875 5.26875L19.25 13.125L31.8125 5.26875C31.9898 5.146 32.1901 5.06049 32.4013 5.0174C32.6126 4.97431 32.8304 4.97454 33.0416 5.01806C33.2527 5.06158 33.4529 5.1475 33.6299 5.27062C33.8069 5.39373 33.9571 5.55148 34.0713 5.73431C34.1856 5.91715 34.2616 6.12127 34.2947 6.33433C34.3278 6.54738 34.3173 6.76493 34.2639 6.97382C34.2105 7.18271 34.1153 7.37859 33.984 7.5496C33.8527 7.72062 33.688 7.86321 33.5 7.96875Z" fill="black"/>
</svg>
