<svg width="31" height="30" viewBox="0 0 31 30" fill="none" xmlns="http://www.w3.org/2000/svg">
<path fill-rule="evenodd" clip-rule="evenodd" d="M28.3571 0H2.63616C1.45759 0 0.5 0.970982 0.5 2.16295V27.8371C0.5 29.029 1.45759 30 2.63616 30H28.3571C29.5357 30 30.5 29.029 30.5 27.8371V2.16295C30.5 0.970982 29.5357 0 28.3571 0ZM5.12054 25.7143H9.56696H9.57366V11.3973H5.12054V25.7143ZM4.76562 6.86384C4.76562 8.28348 5.91741 9.44196 7.34375 9.44196C8.77009 9.44196 9.92188 8.29018 9.92188 6.86384C9.92188 5.4442 8.76339 4.28571 7.34375 4.28571C5.91741 4.28571 4.76562 5.4442 4.76562 6.86384ZM21.7879 25.7143H26.2344V17.8661C26.2344 14.0089 25.3973 11.0424 20.8973 11.0424C18.7344 11.0424 17.2812 12.2277 16.6853 13.3527H16.625V11.3973H12.3594V25.7143H16.8058V18.6295C16.8058 16.7612 17.1607 14.9531 19.4777 14.9531C21.7545 14.9531 21.7879 17.0893 21.7879 18.75V25.7143Z" fill="white"/>
<path d="M26.2344 25.7143H21.7879V18.75C21.7879 17.0893 21.7545 14.9531 19.4777 14.9531C17.1607 14.9531 16.8058 16.7612 16.8058 18.6295V25.7143H12.3594V11.3973H16.625V13.3527H16.6853C17.2812 12.2277 18.7344 11.0424 20.8973 11.0424C25.3973 11.0424 26.2344 14.0089 26.2344 17.8661V25.7143Z" fill="black"/>
<path d="M9.56696 25.7143H5.12054V11.3973H9.57366V25.7143H9.56696Z" fill="black"/>
<path d="M7.34375 9.44196C5.91741 9.44196 4.76562 8.28348 4.76562 6.86384C4.76562 5.4442 5.91741 4.28571 7.34375 4.28571C8.76339 4.28571 9.92188 5.4442 9.92188 6.86384C9.92188 8.29018 8.77009 9.44196 7.34375 9.44196Z" fill="black"/>
</svg>
